# xmcd CD database file
#
# Track frame offsets:
#	150
#	24187
#	47697
#	69396
#	104909
#	127203
#	147756
#	174217
#	199989
#	203702
#	220476
#
# Disc length: 3283 seconds
#
# Revision: 0
# Processed by: cddbd v1.5.2PL0 Copyright (c) Steve Scherf et al.
# Submitted via: CDex 1.51
#
DISCID=a70cd10b
DTITLE=Tony Allen - Secret Agent
DYEAR=2009
DGENRE=Jazz
TTITLE0=Secret Agent
TTITLE1=IJO
TTITLE2=Switch
TTITLE3=Celebrate
TTITLE4=Ayenlo
TTITLE5=Busybody
TTITLE6=Pariwo
TTITLE7=Nina Lowo
TTITLE8=Atuwaba
TTITLE9=Alutere
TTITLE10=Elewon Po
EXTD=YEAR: 2009
EXTT0=
EXTT1=
EXTT2=
EXTT3=
EXTT4=
EXTT5=
EXTT6=
EXTT7=
EXTT8=
EXTT9=
EXTT10=
PLAYORDER=
